<svg version="1.2" xmlns="http://www.w3.org/2000/svg" viewBox="0 0 312 48" width="312" height="48">
	<style>
		.s0 { opacity: .98;fill: #000000 } 
	</style>
	<path id="Path 0" fill-rule="evenodd" class="s0" d="m17.91 7.15c8.3 0.29 11.32 0.8 13.99 2.36 1.86 1.09 4.26 3.11 5.32 4.49 1.07 1.37 2.18 4.75 2.48 7.5 0.42 3.9 0.02 6.18-1.83 10.4-1.3 2.98-3.95 6.77-5.87 8.42-1.93 1.66-5.07 3.67-7 4.46-2.02 0.83-8.06 1.61-14.25 1.83-10.21 0.37-10.75 0.29-10.75-1.61 0-1.1 1.39-9.76 3.09-19.25 1.7-9.49 3.34-17.64 3.66-18.11 0.31-0.47 5.33-0.69 11.16-0.49zm-2.9 26.1c-0.01 0.96 0.55 1.76 1.24 1.77 0.69 0.01 2.6-0.43 4.25-0.96 1.92-0.63 3.63-2.25 4.75-4.52 0.96-1.95 1.75-4.1 1.76-4.79 0-0.69-0.67-2.26-1.5-3.5-1.07-1.6-2.5-2.25-4.92-2.25-3.4 0-3.42 0.02-4.49 6.25-0.6 3.44-1.09 7.04-1.09 8zm44.24-18.19c2.61-0.03 5.99 0.55 7.5 1.3 1.51 0.75 3.54 3 4.5 5 0.96 2 1.75 4.76 1.75 6.14 0 1.37-0.23 3.17-0.5 4-0.4 1.19-2.44 1.5-10 1.5-6.94 0-9.5 0.34-9.49 1.25 0 0.94 2.21 1.13 9 0.75 6.8-0.38 9-0.19 9 0.75-0.01 0.69-1.81 3.05-4.01 5.25-2.52 2.52-5.57 4.4-8.25 5.08-2.34 0.6-5.83 0.79-7.75 0.43-1.93-0.36-4.51-1.3-5.75-2.08-1.24-0.79-2.96-3.12-3.83-5.18-1.09-2.58-1.36-4.99-0.88-7.75 0.38-2.2 1.28-5.13 1.99-6.5 0.71-1.38 2.57-3.71 4.13-5.19 1.56-1.48 3.96-3.14 5.34-3.69 1.37-0.55 4.64-1.02 7.25-1.06zm-2.5 11.92c1.84 0.01 3.03-0.41 2.75-0.98-0.28-0.55-1.06-0.99-1.75-0.98-0.69 0-1.93 0.45-2.75 0.98-1.14 0.74-0.72 0.97 1.75 0.98zm124.39-11.98h6.43c6.14 0 6.41 0.1 5.97 2.25-0.25 1.24-1.49 8.2-5.04 28.69l-5.5 0.61c-3.48 0.39-5.87 0.21-6.5-0.49-0.67-0.73-0.39-4.46 0.86-11.33 1.02-5.62 2.29-12.37 2.82-14.98zm28.68 0.28c5.74 0.2 6.6 0.52 9.25 3.47 1.61 1.79 2.93 4.37 2.93 5.75 0 2.31-0.37 2.5-9.5 2.59l3.75 1.95c2.06 1.08 4.2 3.08 4.75 4.46 0.55 1.37 1 3.17 1 4 0 0.83-1.47 3.01-3.25 4.86-2.33 2.41-4.53 3.57-7.75 4.09-2.48 0.4-6.3 0.4-8.5-0.01-2.41-0.44-5.1-1.87-6.75-3.58-1.52-1.58-2.75-3.99-2.75-5.36 0-2.39 0.26-2.5 6-2.5 3.33 0 6 0.44 6 1 0 0.55 0.78 1.24 1.75 1.52 0.96 0.29 2.09 0.18 2.52-0.25 0.42-0.42-1.94-1.78-5.25-3.02-3.31-1.24-6.7-3.26-7.53-4.5-0.83-1.24-1.51-3.6-1.52-5.25q-0.01-3 2.76-5.63c1.52-1.44 3.44-2.89 4.27-3.22 0.82-0.33 4.34-0.5 7.82-0.37zm-1.32 11.22c0.82 0.27 2.06 0.52 2.75 0.54 0.88 0.04 0.81-0.41-0.25-1.54-0.83-0.87-2.07-1.57-2.75-1.54-0.69 0.02-1.25 0.49-1.25 1.04 0 0.55 0.67 1.22 1.5 1.5zm20.64-11.5h6.43c3.53 0 6.4 0.34 6.36 0.75-0.04 0.41-1.3 7.5-5.52 30.75l-5.96-0.24c-3.27-0.13-6.18-0.49-6.45-0.8-0.28-0.3 0.33-5.15 1.35-10.76 1.02-5.61 2.29-12.34 2.82-14.95zm32.36 0.04c3.3-0.02 6.11 0.65 8.25 1.96 1.79 1.1 3.99 3.46 4.88 5.25 1.2 2.38 1.46 4.59 0.99 8.25-0.39 2.99-1.65 6.31-3.13 8.25-1.37 1.79-3.95 4.14-5.74 5.23-1.78 1.09-5.05 2.27-7.25 2.62-2.2 0.35-5.57 0.16-7.5-0.42-1.92-0.58-4.65-2.32-6.06-3.87-1.41-1.54-2.9-4.16-3.31-5.81-0.42-1.65-0.28-4.91 0.31-7.25 0.58-2.34 2.32-5.89 3.85-7.9 1.53-2 4.34-4.23 6.25-4.96 1.9-0.72 5.71-1.33 8.46-1.35zm-5.7 16.66c0.12 1.91 0.84 3.51 1.7 3.8 0.83 0.27 2.4-0.4 3.5-1.5 1.23-1.22 1.91-3.07 1.75-4.75-0.17-1.89-0.88-2.84-2.27-3.04-1.11-0.16-2.66 0.27-3.45 0.95-0.8 0.69-1.34 2.69-1.23 4.54zm25.32-16.7h6.44c5.06 0 6.44 0.32 6.44 1.5 0 1.33 0.31 1.33 2.75 0.01 1.52-0.83 4.44-1.5 6.5-1.5 2.68-0.01 4.47 0.71 6.25 2.49 1.97 1.96 2.5 3.52 2.5 7.25 0 2.61-0.67 8.24-1.5 12.5-0.82 4.26-1.5 7.97-1.5 8.25 0 0.27-2.92 0.5-6.5 0.5-6.2 0-6.48-0.1-6.06-2.25 0.23-1.24 0.93-5.18 1.55-8.75 0.61-3.58 0.87-7.06 0.57-7.75-0.31-0.69-1.68-1.25-3.06-1.25-1.38 0-2.88 0.78-3.36 1.75-0.48 0.96-1.49 5.47-3.64 18.27l-6.25-0.01c-4.33-0.01-6.25-0.39-6.24-1.26 0-0.69 0.69-5.3 1.53-10.25 0.84-4.95 1.99-11.36 2.55-14.25zm-91.7-13.97c1.7 0.01 3.89 0.8 4.87 1.75 0.98 0.94 1.75 2.62 1.71 3.72-0.03 1.1-0.61 2.75-1.28 3.66-0.67 0.91-2.45 2.15-3.97 2.75-1.88 0.74-3.54 0.77-5.25 0.09-1.37-0.55-2.89-1.79-3.36-2.75-0.48-0.96-0.65-2.43-0.37-3.25 0.27-0.83 1.41-2.51 2.53-3.75 1.29-1.42 3.18-2.24 5.12-2.22zm47.75-0.03c1.56 0 3.73 0.45 4.83 1 1.29 0.64 1.99 1.98 1.97 3.75-0.02 1.51-0.58 3.5-1.25 4.41-0.67 0.91-2.45 2.15-3.97 2.75-1.88 0.74-3.54 0.77-5.25 0.09-1.37-0.55-2.89-1.79-3.36-2.75-0.48-0.96-0.65-2.43-0.37-3.25 0.27-0.83 1.41-2.51 2.53-3.75 1.2-1.32 3.21-2.25 4.87-2.25zm-91.67 6c6.32 0 6.52 0.08 6.96 2.75 0.26 1.51 1 7.25 2.85 22.75l12.19-25.56 6.25 0.03c4.33 0.02 6.25 0.41 6.24 1.28-0.02 0.69-4.22 9.35-18.66 37.25h-16.74l-2.76-17c-1.52-9.35-2.78-18.01-2.8-19.25-0.02-2.11 0.39-2.25 6.47-2.25zm-26.42 1h12.92l-0.5 3.5c-0.45 3.2-0.28 3.5 2 3.5 1.89 0 2.39 0.43 2.06 1.75-0.25 0.96-0.7 3.44-1 5.5-0.47 3.19-0.93 3.75-3.06 3.75-1.92 0-2.63 0.63-3.06 2.75-0.31 1.51-0.76 3.54-1 4.5-0.34 1.35 0.19 1.75 2.31 1.73 2.65-0.02 2.73 0.13 2.01 3.75-0.4 2.07-0.74 4.56-0.75 5.52 0 1.45-0.94 1.75-5.51 1.75-4.39 0-6.05-0.49-8.25-2.42-2.41-2.12-2.72-3.06-2.57-7.75 0.1-2.93 0.44-6.34 0.75-7.58 0.45-1.77 0.15-2.25-1.43-2.25-1.39 0-1.87-0.53-1.58-1.75 0.22-0.96 0.67-3.44 1-5.5 0.45-2.89 1.04-3.75 2.58-3.75 1.52 0 2.13-0.85 2.54-3.5zm-34.58 7c5.12 0 6.5 0.32 6.5 1.5 0 1.33 0.31 1.33 2.75 0.01 1.52-0.83 4.44-1.5 6.5-1.5 2.68-0.01 4.47 0.71 6.25 2.49 1.97 1.96 2.5 3.52 2.5 7.25 0 2.61-0.67 8.24-1.5 12.5-0.82 4.26-1.5 7.97-1.5 8.25 0 0.27-2.92 0.5-6.5 0.5-6.2 0-6.48-0.1-6.06-2.25 0.24-1.24 0.93-5.18 1.55-8.75 0.62-3.58 0.87-7.06 0.57-7.75-0.31-0.69-1.68-1.25-3.06-1.25-1.37 0-2.9 0.79-3.4 1.75-0.5 0.96-1.51 5.47-3.6 18.27l-6.25-0.01c-4.32-0.01-6.25-0.4-6.25-1.26 0-0.69 1.12-7.55 2.5-15.25 1.37-7.7 2.5-14.11 2.5-14.25 0-0.14 2.93-0.25 6.5-0.25z"/>
</svg>