<svg xmlns="http://www.w3.org/2000/svg" width="625" height="625" viewBox="0 0 625 625"><path fill-rule="evenodd" d="M391.25 391.12c1.51-.07 4.89.32 7.5.85 2.61.54 5.31 1.67 6 2.5.98 1.2.99 2.12.05 4.28-.66 1.51-1.23 2.86-1.25 3-.03.14-1.74-.42-3.8-1.25-2.06-.82-5.66-1.51-8-1.53-2.98-.03-4.85.57-6.25 2-1.26 1.27-1.72 2.59-1.25 3.53.41.82 1.76 1.92 3 2.43s5.51 1.86 9.5 3c5.33 1.52 7.79 2.8 9.28 4.82 1.12 1.51 2.02 4.1 1.99 5.75s-.61 4.11-1.28 5.46c-.68 1.35-2.81 3.48-4.74 4.74s-5.52 2.56-8 2.88c-2.78.37-6.98-.02-11-1.03-3.57-.9-7.03-2.18-7.68-2.84-.91-.93-.86-1.96 1.68-7.71l3.25 1.63c1.79.9 5.73 1.88 8.75 2.17 4.7.45 5.83.21 7.75-1.64 1.24-1.19 2.04-2.72 1.79-3.41-.26-.69-1.72-1.78-3.25-2.43-1.54-.66-5.49-1.95-8.79-2.88-3.77-1.06-7.02-2.76-8.75-4.57-1.93-2.01-2.75-3.92-2.75-6.37 0-1.93.61-4.74 1.36-6.25s2.97-3.47 4.93-4.34c1.96-.88 4.39-1.84 5.39-2.14s3.06-.59 4.57-.65m76.5.39c2.89.27 6.94 1.33 9 2.35 2.06 1.03 4.9 3.17 6.29 4.75 1.4 1.59 3.15 4.69 3.88 6.89.74 2.2 1.17 6.32.96 9.15-.27 3.7-1.24 6.36-3.43 9.5-1.68 2.39-4.83 5.34-7 6.54-2.17 1.21-5.75 2.46-7.95 2.78-2.2.33-6.25.13-9-.43-3.35-.69-6.44-2.27-9.39-4.79-2.41-2.06-5.07-5.1-5.92-6.75-.85-1.67-1.55-5.67-1.57-9-.03-3.65.58-7.17 1.55-9 .88-1.65 3.11-4.48 4.96-6.3 1.86-1.81 5.39-3.94 7.87-4.73 2.7-.87 6.6-1.25 9.75-.96M455.26 405c-1.41 2.13-2.31 4.97-2.29 7.25.02 2.06.65 4.99 1.4 6.5s2.44 3.49 3.75 4.39 3.95 1.93 5.88 2.28c2.44.45 4.54.11 6.93-1.14 1.88-.98 4.36-3.05 5.5-4.6 1.34-1.83 2.06-4.31 2.03-7-.02-2.3-.81-5.42-1.75-6.93s-2.72-3.41-3.96-4.21c-1.24-.81-3.6-1.7-5.25-1.99-1.65-.28-4.56.04-6.47.72-2 .71-4.44 2.71-5.77 4.73M241.5 111.32c6.97.25 10.46.92 15.5 3 3.57 1.48 8.88 4.15 11.79 5.94 2.92 1.78 11.47 8.14 19 14.12 7.54 5.98 15.85 11.94 18.46 13.25 2.61 1.3 5.76 2.38 7 2.39s4.95-1.34 8.25-3 11.18-6.84 17.5-11.52 14.87-10.5 19-12.93c4.12-2.43 10.31-5.35 13.75-6.49 3.54-1.18 8.85-2.08 12.25-2.08 3.3 0 8.36.51 11.25 1.12 2.89.62 7.27 2.15 9.75 3.4s6.52 4.05 9 6.22 5.94 6.61 7.7 9.85c1.77 3.25 4.18 9.51 5.37 13.91 1.75 6.48 2.17 10.85 2.2 23 .03 11.82-.43 17.22-2.19 25.5-1.22 5.78-3.53 13.65-5.12 17.5s-4.78 9.93-7.08 13.5c-2.3 3.58-6.7 8.99-9.78 12.04-3.08 3.04-7.17 6.62-12.6 10.36l4.25-4.7c2.34-2.59 6.24-7.74 8.67-11.45s5.54-9.67 6.91-13.25c1.37-3.57 3.26-10.32 4.21-15 1.38-6.82 1.62-11.75 1.19-25-.4-12.59-1.02-18.22-2.63-23.75-1.15-3.99-2.95-8.94-3.98-11-1.04-2.06-3.4-5.27-5.25-7.12-1.85-1.86-5.17-4.21-7.37-5.23-2.63-1.22-6.32-1.86-10.75-1.88-5.77-.02-7.73.49-13.5 3.45-3.71 1.91-13.05 8.51-20.75 14.66s-16.7 12.93-20 15.08c-3.3 2.14-8.48 4.6-11.5 5.47-3.75 1.08-7.56 1.4-12 1.02-4.85-.42-8.53-1.58-14.5-4.58-4.4-2.22-14.3-8.79-22-14.61s-17.15-12.16-21-14.1c-4.77-2.41-8.43-3.55-11.5-3.59-2.48-.03-6.07.42-8 1-1.93.59-4.87 2.55-6.55 4.37s-4 5.79-5.15 8.81c-1.16 3.03-2.6 8.99-3.2 13.25-.61 4.26-1.1 11.69-1.1 16.5s.66 14.38 1.46 21.25c.81 6.88 2.41 17.45 3.57 23.5s3.68 17.3 5.61 25c1.92 7.7 5.75 20.75 8.5 29 2.76 8.25 6.94 19.73 9.31 25.5 2.36 5.77 6.44 14.77 9.06 20s6.62 12.39 8.88 15.91c2.26 3.53 5.46 7.5 7.11 8.82 2.89 2.32 3.06 2.34 4.74.59.96-1 4.7-8.57 8.31-16.82s7.99-17.48 9.74-20.5c1.74-3.02 6.15-8.65 9.8-12.5 4.19-4.42 8.98-8.25 13.02-10.39 3.51-1.86 5.94-2.96 5.39-2.45s-3.48 2.98-6.5 5.48-7.19 6.98-9.25 9.96c-2.06 2.97-5.04 8.55-6.61 12.4-1.58 3.85-4.77 13.3-7.09 21s-5.42 16.21-6.89 18.92c-1.46 2.7-4.01 5.74-5.66 6.74-1.65 1.01-4.46 1.83-6.25 1.84-1.79 0-5.16-.98-7.5-2.17s-6.43-4.45-9.1-7.25c-2.67-2.79-7.85-9.57-11.5-15.06-3.66-5.49-9.83-16.29-13.72-24s-9.83-21-13.19-29.52-7.74-20.9-9.73-27.5-4.92-17.17-6.52-23.5c-1.6-6.32-3.85-17.12-5.01-24-1.16-6.87-2.37-19.02-2.69-27-.37-9.34-.14-17.52.66-23 .68-4.67 2.32-11.99 3.64-16.25 1.41-4.51 4.21-10.36 6.73-14 2.51-3.64 6.58-7.83 9.75-10.05 2.98-2.08 8.13-4.67 11.43-5.75 4.59-1.49 8.12-1.88 15-1.63m2.5 37.66c.82-.01 3.3.59 5.5 1.33 2.2.75 6.7 3.17 10 5.38s9.82 7.31 14.5 11.34c4.67 4.02 11.2 9.31 14.5 11.75s9.04 5.96 12.75 7.83c3.71 1.86 8.44 3.79 10.5 4.29 2.88.69 3.17.92 1.25 1.01-1.38.06-5.65-.71-9.5-1.7s-10.15-3.51-14-5.6-10.6-6.38-15-9.54-10.93-7.7-14.5-10.09c-3.58-2.39-8.41-5.17-10.75-6.16-3.13-1.34-4.78-1.56-6.25-.82-1.1.55-2.68 2.58-3.5 4.5-.83 1.93-1.98 7.89-2.57 13.25-.78 7.08-.76 13.17.06 22.25.63 6.88 2.06 17.9 3.18 24.5s3.98 19.65 6.35 29c2.38 9.35 6.81 24.65 9.85 34s8.03 22.96 11.08 30.25S272.77 329 272.5 329s-2.24-2.81-4.36-6.25c-2.13-3.44-6.23-10.98-9.13-16.75s-7.18-15.23-9.53-21c-2.34-5.77-6.3-16.8-8.78-24.5-2.49-7.7-5.66-18.72-7.04-24.5-1.39-5.77-3.33-15.45-4.32-21.5-1.21-7.4-1.81-16.41-1.82-27.5-.01-12.68.38-17.77 1.68-22 .93-3.02 2.74-7.07 4.01-9 1.28-1.92 3.9-4.29 5.81-5.25s4.15-1.76 4.98-1.77M390.23 261.5l3.39 3.75c2.06 2.29 3.6 5.21 3.95 7.5.39 2.56.07 4.46-1 6-.86 1.24-3.71 3-6.32 3.93-2.61.92-4.98 1.8-5.25 1.96-.27.15.65 1.53 2.05 3.07 1.41 1.53 2.87 3.8 3.25 5.04.39 1.24.25 3.15-.3 4.25s-2.91 2.88-5.25 3.95-8.52 2.45-13.75 3.06-13.55.97-27.5.49l11-1.34c6.05-.74 13.93-2.26 17.5-3.38 4.37-1.37 7.57-3.14 9.75-5.41 2.31-2.4 3.18-4.16 3-6.12-.21-2.29-.67-2.7-2.75-2.47-1.38.15-11.5.46-22.5.68-16.44.34-18.49.24-11.5-.55 4.68-.53 12.55-1.78 17.5-2.78 4.95-.99 11.66-3.12 14.9-4.72 3.25-1.6 6.78-4.03 7.84-5.41 1.24-1.6 1.94-4.12 1.96-7zm-8.68 47.75c1.35 1.51 2.34 3.72 2.2 4.9s-1.37 2.97-2.75 3.97c-1.37.99-5.42 2.27-9 2.84-3.57.56-10.1.98-22.5.84l8-1.27c4.4-.69 10.03-1.83 12.5-2.53 2.48-.69 5.74-2.55 7.25-4.13 1.85-1.93 2.6-3.61 2.3-5.12-.42-2.12-.31-2.09 2 .5m-8.48 18.25 1.96 2.25c1.41 1.61 1.79 3.03 1.33 5-.35 1.51-1.95 5.45-3.56 8.75s-4.36 7.47-6.11 9.27-3.86 3.27-4.69 3.28c-.82.01-2.8-1.01-4.4-2.27-1.59-1.25-4.18-4.87-5.75-8.03S349 339.55 349 339s1.69-1.01 3.75-1.02c2.06 0 6.23-.58 9.25-1.27 3.03-.69 6.74-2.03 8.25-2.98 1.65-1.04 2.76-2.63 2.78-3.98zM84.21 391.8l13.15.38c11.18.32 13.78.71 17.4 2.6 2.41 1.26 5.44 4.03 7 6.4 2.07 3.15 2.83 5.69 3.08 10.25.26 4.91-.14 6.93-2.08 10.57-1.59 2.96-4.06 5.52-7.25 7.5-4.67 2.9-5.31 3.01-31.5 3.5zm8.8 33.2c11.74-.01 14.34-.53 16.75-2.01 1.78-1.1 3.75-3.01 4.37-4.24.61-1.24 1.12-4.05 1.12-6.25s-.51-5.02-1.12-6.25c-.62-1.24-2.59-3.15-4.37-4.25-2.41-1.48-5.01-2-10-2h-6.75zm45-33h31v8h-21v8h19v8h-19v9h22v8h-32zm46 0 3.75-.02c3.59-.01 4.17.51 23.75 24.52l.33-24.5h9.17v41l-3.75.02c-3.59.02-4.18-.5-23.75-24.39l-.5 24.37h-9zm47.87 0h36.13v8h-13v33h-9v-33l-13.5-.5zm75.48.5 12.07 29 2.36-5.5c1.3-3.03 4.13-9.67 10.21-24h4.5c2.48 0 4.5.22 4.5.5 0 .27-3.21 8.03-7.13 17.25-3.92 9.21-7.86 18.22-8.75 20.02-1.47 2.97-2.03 3.27-10.62 3.28l-8.5-19.66c-4.67-10.81-8.64-20.07-8.81-20.58s2.02-.79 10.17-.31M352 392h9v41h-9zm69 0h9v41h-9zm80 0 4.25.01c4.2.01 4.37.15 12.75 10.57 4.68 5.81 9.31 11.32 10.29 12.24 1.7 1.6 1.78 1.14 1.71-22.82h9v41h-4c-3.9 0-4.23-.29-23.5-24.07L511 433h-10z" style="fill:#000"/></svg>