<svg version="1.2" xmlns="http://www.w3.org/2000/svg" viewBox="0 0 625 625" width="625" height="625">
	<style>
		.s0 { fill: #000000 } 
	</style>
	<path id="Path 0" fill-rule="evenodd" class="s0" d="m391.25 391.12c1.51-0.07 4.89 0.32 7.5 0.85 2.61 0.54 5.31 1.67 6 2.5 0.98 1.2 0.99 2.12 0.05 4.28-0.66 1.51-1.23 2.86-1.25 3-0.03 0.14-1.74-0.42-3.8-1.25-2.06-0.82-5.66-1.51-8-1.53-2.98-0.03-4.85 0.57-6.25 2-1.26 1.27-1.72 2.59-1.25 3.53 0.41 0.82 1.76 1.92 3 2.43 1.24 0.51 5.51 1.86 9.5 3 5.33 1.52 7.79 2.8 9.28 4.82 1.12 1.51 2.02 4.1 1.99 5.75-0.03 1.65-0.61 4.11-1.28 5.46-0.68 1.35-2.81 3.48-4.74 4.74-1.93 1.26-5.52 2.56-8 2.88-2.78 0.37-6.98-0.02-11-1.03-3.57-0.9-7.03-2.18-7.68-2.84-0.91-0.93-0.86-1.96 1.68-7.71l3.25 1.63c1.79 0.9 5.73 1.88 8.75 2.17 4.7 0.45 5.83 0.21 7.75-1.64 1.24-1.19 2.04-2.72 1.79-3.41-0.26-0.69-1.72-1.78-3.25-2.43-1.54-0.66-5.49-1.95-8.79-2.88-3.77-1.06-7.02-2.76-8.75-4.57-1.93-2.01-2.75-3.92-2.75-6.37 0-1.93 0.61-4.74 1.36-6.25 0.75-1.51 2.97-3.47 4.93-4.34 1.96-0.88 4.39-1.84 5.39-2.14 1-0.3 3.06-0.59 4.57-0.65zm76.5 0.39c2.89 0.27 6.94 1.33 9 2.35 2.06 1.03 4.9 3.17 6.29 4.75 1.4 1.59 3.15 4.69 3.88 6.89 0.74 2.2 1.17 6.32 0.96 9.15-0.27 3.7-1.24 6.36-3.43 9.5-1.68 2.39-4.83 5.34-7 6.54-2.17 1.21-5.75 2.46-7.95 2.78-2.2 0.33-6.25 0.13-9-0.43-3.35-0.69-6.44-2.27-9.39-4.79-2.41-2.06-5.07-5.1-5.92-6.75-0.85-1.67-1.55-5.67-1.57-9-0.03-3.65 0.58-7.17 1.55-9 0.88-1.65 3.11-4.48 4.96-6.3 1.86-1.81 5.39-3.94 7.87-4.73 2.7-0.87 6.6-1.25 9.75-0.96zm-12.49 13.49c-1.41 2.13-2.31 4.97-2.29 7.25 0.02 2.06 0.65 4.99 1.4 6.5 0.75 1.51 2.44 3.49 3.75 4.39 1.31 0.9 3.95 1.93 5.88 2.28 2.44 0.45 4.54 0.11 6.93-1.14 1.88-0.98 4.36-3.05 5.5-4.6 1.34-1.83 2.06-4.31 2.03-7-0.02-2.3-0.81-5.42-1.75-6.93-0.94-1.51-2.72-3.41-3.96-4.21-1.24-0.81-3.6-1.7-5.25-1.99-1.65-0.28-4.56 0.04-6.47 0.72-2 0.71-4.44 2.71-5.77 4.73zm-213.76-293.68c6.97 0.25 10.46 0.92 15.5 3 3.57 1.48 8.88 4.15 11.79 5.94 2.92 1.78 11.47 8.14 19 14.12 7.54 5.98 15.85 11.94 18.46 13.25 2.61 1.3 5.76 2.38 7 2.39 1.24 0.01 4.95-1.34 8.25-3 3.3-1.66 11.18-6.84 17.5-11.52 6.32-4.68 14.87-10.5 19-12.93 4.12-2.43 10.31-5.35 13.75-6.49 3.54-1.18 8.85-2.08 12.25-2.08 3.3 0 8.36 0.51 11.25 1.12 2.89 0.62 7.27 2.15 9.75 3.4 2.48 1.25 6.52 4.05 9 6.22 2.48 2.17 5.94 6.61 7.7 9.85 1.77 3.25 4.18 9.51 5.37 13.91 1.75 6.48 2.17 10.85 2.2 23 0.03 11.82-0.43 17.22-2.19 25.5-1.22 5.78-3.53 13.65-5.12 17.5-1.59 3.85-4.78 9.93-7.08 13.5-2.3 3.58-6.7 8.99-9.78 12.04-3.08 3.04-7.17 6.62-12.6 10.36l4.25-4.7c2.34-2.59 6.24-7.74 8.67-11.45 2.43-3.71 5.54-9.67 6.91-13.25 1.37-3.57 3.26-10.32 4.21-15 1.38-6.82 1.62-11.75 1.19-25-0.4-12.59-1.02-18.22-2.63-23.75-1.15-3.99-2.95-8.94-3.98-11-1.04-2.06-3.4-5.27-5.25-7.12-1.85-1.86-5.17-4.21-7.37-5.23-2.63-1.22-6.32-1.86-10.75-1.88-5.77-0.02-7.73 0.49-13.5 3.45-3.71 1.91-13.05 8.51-20.75 14.66-7.7 6.15-16.7 12.93-20 15.08-3.3 2.14-8.48 4.6-11.5 5.47-3.75 1.08-7.56 1.4-12 1.02-4.85-0.42-8.53-1.58-14.5-4.58-4.4-2.22-14.3-8.79-22-14.61-7.7-5.82-17.15-12.16-21-14.1-4.77-2.41-8.43-3.55-11.5-3.59-2.48-0.03-6.07 0.42-8 1-1.93 0.59-4.87 2.55-6.55 4.37-1.68 1.82-4 5.79-5.15 8.81-1.16 3.03-2.6 8.99-3.2 13.25-0.61 4.26-1.1 11.69-1.1 16.5 0 4.81 0.66 14.38 1.46 21.25 0.81 6.88 2.41 17.45 3.57 23.5 1.16 6.05 3.68 17.3 5.61 25 1.92 7.7 5.75 20.75 8.5 29 2.76 8.25 6.94 19.73 9.31 25.5 2.36 5.77 6.44 14.77 9.06 20 2.62 5.23 6.62 12.39 8.88 15.91 2.26 3.53 5.46 7.5 7.11 8.82 2.89 2.32 3.06 2.34 4.74 0.59 0.96-1 4.7-8.57 8.31-16.82 3.61-8.25 7.99-17.48 9.74-20.5 1.74-3.02 6.15-8.65 9.8-12.5 4.19-4.42 8.98-8.25 13.02-10.39 3.51-1.86 5.94-2.96 5.39-2.45-0.55 0.51-3.48 2.98-6.5 5.48-3.02 2.5-7.19 6.98-9.25 9.96-2.06 2.97-5.04 8.55-6.61 12.4-1.58 3.85-4.77 13.3-7.09 21-2.32 7.7-5.42 16.21-6.89 18.92-1.46 2.7-4.01 5.74-5.66 6.74-1.65 1.01-4.46 1.83-6.25 1.84-1.79 0-5.16-0.98-7.5-2.17-2.34-1.19-6.43-4.45-9.1-7.25-2.67-2.79-7.85-9.57-11.5-15.06-3.66-5.49-9.83-16.29-13.72-24-3.89-7.71-9.83-21-13.19-29.52-3.36-8.52-7.74-20.9-9.73-27.5-1.99-6.6-4.92-17.17-6.52-23.5-1.6-6.32-3.85-17.12-5.01-24-1.16-6.87-2.37-19.02-2.69-27-0.37-9.34-0.14-17.52 0.66-23 0.68-4.67 2.32-11.99 3.64-16.25 1.41-4.51 4.21-10.36 6.73-14 2.51-3.64 6.58-7.83 9.75-10.05 2.98-2.08 8.13-4.67 11.43-5.75 4.59-1.49 8.12-1.88 15-1.63zm2.5 37.66c0.82-0.01 3.3 0.59 5.5 1.33 2.2 0.75 6.7 3.17 10 5.38 3.3 2.21 9.82 7.31 14.5 11.34 4.67 4.02 11.2 9.31 14.5 11.75 3.3 2.44 9.04 5.96 12.75 7.83 3.71 1.86 8.44 3.79 10.5 4.29 2.88 0.69 3.17 0.92 1.25 1.01-1.38 0.06-5.65-0.71-9.5-1.7-3.85-0.99-10.15-3.51-14-5.6-3.85-2.09-10.6-6.38-15-9.54-4.4-3.16-10.93-7.7-14.5-10.09-3.58-2.39-8.41-5.17-10.75-6.16-3.13-1.34-4.78-1.56-6.25-0.82-1.1 0.55-2.68 2.58-3.5 4.5-0.83 1.93-1.98 7.89-2.57 13.25-0.78 7.08-0.76 13.17 0.06 22.25 0.63 6.88 2.06 17.9 3.18 24.5 1.12 6.6 3.98 19.65 6.35 29 2.38 9.35 6.81 24.65 9.85 34 3.04 9.35 8.03 22.96 11.08 30.25 3.05 7.29 5.32 13.25 5.05 13.25-0.27 0-2.24-2.81-4.36-6.25-2.13-3.44-6.23-10.98-9.13-16.75-2.9-5.77-7.18-15.23-9.53-21-2.34-5.77-6.3-16.8-8.78-24.5-2.49-7.7-5.66-18.72-7.04-24.5-1.39-5.77-3.33-15.45-4.32-21.5-1.21-7.4-1.81-16.41-1.82-27.5-0.01-12.68 0.38-17.77 1.68-22 0.93-3.02 2.74-7.07 4.01-9 1.28-1.92 3.9-4.29 5.81-5.25 1.91-0.96 4.15-1.76 4.98-1.77zm146.23 112.52l3.39 3.75c2.06 2.29 3.6 5.21 3.95 7.5 0.39 2.56 0.07 4.46-1 6-0.86 1.24-3.71 3-6.32 3.93-2.61 0.92-4.98 1.8-5.25 1.96-0.27 0.15 0.65 1.53 2.05 3.07 1.41 1.53 2.87 3.8 3.25 5.04 0.39 1.24 0.25 3.15-0.3 4.25-0.55 1.1-2.91 2.88-5.25 3.95-2.34 1.07-8.52 2.45-13.75 3.06-5.23 0.61-13.55 0.97-27.5 0.49l11-1.34c6.05-0.74 13.93-2.26 17.5-3.38 4.37-1.37 7.57-3.14 9.75-5.41 2.31-2.4 3.18-4.16 3-6.12-0.21-2.29-0.67-2.7-2.75-2.47-1.38 0.15-11.5 0.46-22.5 0.68-16.44 0.34-18.49 0.24-11.5-0.55 4.68-0.53 12.55-1.78 17.5-2.78 4.95-0.99 11.66-3.12 14.9-4.72 3.25-1.6 6.78-4.03 7.84-5.41 1.24-1.6 1.94-4.12 1.96-7zm-8.68 47.75c1.35 1.51 2.34 3.72 2.2 4.9-0.14 1.18-1.37 2.97-2.75 3.97-1.37 0.99-5.42 2.27-9 2.84-3.57 0.56-10.1 0.98-22.5 0.84l8-1.27c4.4-0.69 10.03-1.83 12.5-2.53 2.48-0.69 5.74-2.55 7.25-4.13 1.85-1.93 2.6-3.61 2.3-5.12-0.42-2.12-0.31-2.09 2 0.5zm-8.48 18.25l1.96 2.25c1.41 1.61 1.79 3.03 1.33 5-0.35 1.51-1.95 5.45-3.56 8.75-1.61 3.3-4.36 7.47-6.11 9.27-1.75 1.8-3.86 3.27-4.69 3.28-0.82 0.01-2.8-1.01-4.4-2.27-1.59-1.25-4.18-4.87-5.75-8.03-1.57-3.16-2.85-6.2-2.85-6.75 0-0.55 1.69-1.01 3.75-1.02 2.06 0 6.23-0.58 9.25-1.27 3.03-0.69 6.74-2.03 8.25-2.98 1.65-1.04 2.76-2.63 2.78-3.98zm-288.86 64.3l13.15 0.38c11.18 0.32 13.78 0.71 17.4 2.6 2.41 1.26 5.44 4.03 7 6.4 2.07 3.15 2.83 5.69 3.08 10.25 0.26 4.91-0.14 6.93-2.08 10.57-1.59 2.96-4.06 5.52-7.25 7.5-4.67 2.9-5.31 3.01-31.5 3.5zm8.8 33.2c11.74-0.01 14.34-0.53 16.75-2.01 1.78-1.1 3.75-3.01 4.37-4.24 0.61-1.24 1.12-4.05 1.12-6.25 0-2.2-0.51-5.02-1.12-6.25-0.62-1.24-2.59-3.15-4.37-4.25-2.41-1.48-5.01-2-10-2h-6.75zm45-33h31v8h-21v8h19v8h-19v9h22v8h-32zm46 0l3.75-0.02c3.59-0.01 4.17 0.51 23.75 24.52l0.33-24.5h9.17v41l-3.75 0.02c-3.59 0.02-4.18-0.5-23.75-24.39l-0.5 24.37h-9zm47.87 0h36.13v8h-13v33h-9v-33l-13.5-0.5zm75.48 0.5l12.07 29 2.36-5.5c1.3-3.03 4.13-9.67 10.21-24h4.5c2.48 0 4.5 0.22 4.5 0.5 0 0.27-3.21 8.03-7.13 17.25-3.92 9.21-7.86 18.22-8.75 20.02-1.47 2.97-2.03 3.27-10.62 3.28l-8.5-19.66c-4.67-10.81-8.64-20.07-8.81-20.58-0.17-0.51 2.02-0.79 10.17-0.31zm44.64-0.5h9v41h-9zm69 0h9v41h-9zm80 0l4.25 0.01c4.2 0.01 4.37 0.15 12.75 10.57 4.68 5.81 9.31 11.32 10.29 12.24 1.7 1.6 1.78 1.14 1.71-22.82h9v41h-4c-3.9 0-4.23-0.29-23.5-24.07l-0.5 24.07h-10z"/>
</svg>